PathFileType	4	(X/Y/Z)	OpenSim_Sub07_CSStiffKnee_Magnet.trc
DataRate	CameraRate	NumFrames	NumMarkers	Units	OrigDataRate	OrigDataStartFrame	OrigNumFrames
100	100	16	8	m	100	5051	6734
Frame#	Time	torso_imu_offset_imu	pelvis_imu_offset_imu	tibia_r_imu_offset_imu	femur_r_imu_offset_imu	tibia_l_imu_offset_imu	femur_l_imu_offset_imu	toes_r_imu_offset_imu	toes_l_imu_offset_imu
				X1	Y1	Z1	X2	Y2	Z2	X3	Y3	Z3	X4	Y4	Z4	X5	Y5	Z5	X6	Y6	Z6	X7	Y7	Z7	X8		Y8	Z8	

5051	50.50000000	0.93484997	0.21204531	0.05407298	-0.70474404	0.19512874	-0.65193119	-0.18449659	-0.82311013	0.10230475	-0.79595529	-0.26766060	-0.23201806	-0.66502662	0.47564820	0.21704583	-0.59616428	-0.22182841	0.32367187	-0.86503187	-0.39468462	0.03330907	-0.75855889	-0.22222513	-0.39417658
5052	50.51000000	0.93541231	0.21903085	0.05536033	-0.70830283	0.19183067	-0.64433122	-0.16260096	-0.82309997	0.11158046	-0.79956595	-0.24894519	-0.23071486	-0.66061505	0.47902689	0.20829834	-0.59659569	-0.21638572	0.32388409	-0.85322445	-0.40104814	0.08147232	-0.75872098	-0.22099501	-0.38663311
5053	50.52000000	0.93286870	0.22386830	0.05010088	-0.70973682	0.19328442	-0.64783383	-0.14465778	-0.82413952	0.12319020	-0.80661453	-0.23023171	-0.23075784	-0.65310156	0.48437692	0.21400106	-0.58906882	-0.21413063	0.32980046	-0.83330874	-0.41028247	0.12996281	-0.76098766	-0.22189854	-0.38042269
5054	50.53000000	0.93072676	0.22212925	0.05038527	-0.70826488	0.20089115	-0.64731417	-0.13111528	-0.82329359	0.13559618	-0.81394306	-0.21822467	-0.23128445	-0.65584126	0.49055725	0.21688855	-0.58966462	-0.20694822	0.32932435	-0.82169857	-0.42072646	0.18285774	-0.76438304	-0.22269802	-0.37062915
5055	50.54000000	0.92921502	0.22200512	0.05487021	-0.71318607	0.20270666	-0.64759840	-0.11185034	-0.82728109	0.14212799	-0.82169658	-0.20322778	-0.22555755	-0.65418394	0.49463338	0.21320374	-0.58807473	-0.20753209	0.33228162	-0.80445965	-0.41895212	0.22754797	-0.77038829	-0.23085409	-0.37008218
5056	50.55000000	0.92921813	0.22988995	0.05588238	-0.70822237	0.20635583	-0.64757454	-0.10049043	-0.82606586	0.15874412	-0.82236733	-0.18521496	-0.21789033	-0.64364868	0.49926855	0.21965011	-0.58647434	-0.20479713	0.33807186	-0.78537909	-0.43084388	0.26529745	-0.77072737	-0.23259049	-0.36509525
5057	50.56000000	0.92867386	0.23340073	0.05436974	-0.71083394	0.20525945	-0.64824977	-0.09417247	-0.82428294	0.16654017	-0.82627579	-0.16565904	-0.20622580	-0.64008306	0.50301930	0.22390817	-0.58080556	-0.20272115	0.34248085	-0.77273090	-0.44264955	0.27785740	-0.76815756	-0.23758285	-0.35776662
5058	50.57000000	0.92995944	0.23159615	0.05039501	-0.71247859	0.20333770	-0.64546524	-0.08587640	-0.82576700	0.16762114	-0.83599254	-0.15232303	-0.21082187	-0.63631811	0.50992556	0.22392702	-0.58182908	-0.20051834	0.33972814	-0.75890739	-0.44900169	0.27443119	-0.76504706	-0.24143376	-0.35482966
5059	50.58000000	0.92974859	0.23434885	0.04792638	-0.70880903	0.20537336	-0.64126985	-0.08049408	-0.82485881	0.16271868	-0.83668084	-0.13656229	-0.20540075	-0.63367841	0.51856936	0.22912586	-0.58159971	-0.19339461	0.34486458	-0.75173063	-0.46276409	0.26725734	-0.76622226	-0.24270406	-0.34835052
5060	50.59000000	0.92807828	0.23681409	0.05194237	-0.70810310	0.21185528	-0.64597283	-0.08102614	-0.82133870	0.15565316	-0.84243834	-0.12203770	-0.19960526	-0.63039832	0.51755611	0.22633885	-0.57809985	-0.18482631	0.35294313	-0.74494640	-0.47558348	0.25037820	-0.77437501	-0.24368738	-0.34309294
5061	50.60000000	0.93337095	0.23676101	0.05557303	-0.70534433	0.21509890	-0.64685352	-0.08385004	-0.82819497	0.15073696	-0.85152021	-0.11029972	-0.19815302	-0.62981377	0.52150103	0.21755022	-0.57166678	-0.18575502	0.35276419	-0.73909303	-0.48602788	0.24003143	-0.77076593	-0.24945842	-0.33280113
5062	50.61000000	0.93074517	0.23832155	0.04525922	-0.70700749	0.21715939	-0.65085753	-0.08582138	-0.82839034	0.12959239	-0.84937044	-0.09480939	-0.19071067	-0.62513656	0.52846285	0.22439729	-0.57242249	-0.18207938	0.35175057	-0.73382867	-0.49739179	0.22759338	-0.76527401	-0.25486380	-0.32677689
5063	50.62000000	0.93014489	0.24305617	0.05126140	-0.70538960	0.21901951	-0.65047779	-0.09787216	-0.83028718	0.11274708	-0.85090837	-0.08394749	-0.19230753	-0.62043500	0.53465586	0.22510134	-0.57537747	-0.17451606	0.35359913	-0.72879111	-0.50038959	0.21217818	-0.76571458	-0.25703092	-0.32590000
5064	50.63000000	0.92869408	0.23813883	0.05486904	-0.70392395	0.22188961	-0.65003430	-0.10592904	-0.83559569	0.10531073	-0.85468744	-0.07440537	-0.18748503	-0.61775980	0.53776579	0.22192062	-0.57020119	-0.16196671	0.35857141	-0.73018898	-0.50213303	0.19734902	-0.76179127	-0.26235828	-0.31843930
5065	50.64000000	0.92795533	0.24262370	0.04956226	-0.70223659	0.22572931	-0.64852837	-0.11917369	-0.83004572	0.09563195	-0.85280557	-0.06749028	-0.18035839	-0.61642724	0.54178367	0.22288771	-0.56697914	-0.15575615	0.36318859	-0.73153753	-0.50686306	0.17435907	-0.75870289	-0.26908414	-0.31612939
5066	50.65000000	0.92721380	0.24309892	0.04856299	-0.70902411	0.22759495	-0.65252420	-0.14061584	-0.82399407	0.09213584	-0.85870491	-0.05090346	-0.18264970	-0.60996614	0.55036814	0.21719897	-0.56430675	-0.15476955	0.35836024	-0.73172039	-0.50311215	0.15670027	-0.75702806	-0.27082248	-0.31395776
